<?xml version="1.0" standalone="no"?>
<!DOCTYPE svg PUBLIC "-//W3C//DTD SVG 20010904//EN"
 "http://www.w3.org/TR/2001/REC-SVG-20010904/DTD/svg10.dtd">
<svg version="1.0" xmlns="http://www.w3.org/2000/svg"
 width="240.000000pt" height="240.000000pt" viewBox="0 0 240.000000 240.000000"
 preserveAspectRatio="xMidYMid meet">
<metadata>
Created by potrace 1.14, written by Peter Selinger 2001-2017
</metadata>
<g transform="translate(0.000000,240.000000) scale(0.100000,-0.100000)"
fill="#000000" stroke="none">
<path d="M1282 1463 c-173 -297 -352 -607 -352 -610 0 -3 12 -3 27 -1 24 3 46
37 200 303 96 165 178 306 182 313 4 8 17 12 29 10 18 -3 0 -38 -159 -312 -98
-170 -179 -311 -179 -313 0 -2 12 -3 27 -1 23 3 49 42 220 337 106 184 193
335 193 337 0 2 -34 4 -75 4 l-74 0 -39 -67z"/>
<path d="M725 1344 c-88 -52 -160 -98 -160 -104 0 -5 65 -47 145 -94 106 -61
146 -89 148 -105 2 -11 0 -21 -5 -21 -4 0 -73 39 -153 85 -132 77 -145 83
-148 64 -2 -12 1 -26 6 -31 5 -5 83 -52 173 -104 l164 -94 3 66 c2 37 1 72 -1
78 -3 6 -59 42 -126 81 -66 38 -121 72 -121 75 0 7 193 120 203 120 4 0 7 -9
7 -20 0 -14 -20 -31 -65 -57 -36 -20 -65 -41 -65 -45 0 -4 10 -10 23 -13 17
-5 42 5 85 30 l62 36 0 74 c0 41 -3 75 -7 74 -5 -1 -80 -43 -168 -95z"/>
<path d="M1502 1365 l3 -77 123 -71 c67 -39 122 -73 122 -77 0 -6 -193 -120
-203 -120 -3 0 -5 9 -4 21 1 15 21 32 64 57 35 20 63 39 63 42 0 3 -8 10 -18
16 -15 10 -30 4 -85 -28 l-67 -39 0 -75 0 -75 30 16 c33 17 263 149 298 172
23 14 20 17 -130 103 -111 64 -154 94 -156 109 -2 12 0 21 5 21 4 0 73 -38
153 -85 108 -62 146 -80 148 -69 2 8 1 21 -1 28 -4 10 -297 186 -340 204 -4 2
-7 -31 -5 -73z"/>
</g>
</svg>
